# xmcd
#
# Track frame offsets:
#  151
#  15379
#  43873
#  67269
#  91031
#  101342
#  115258
#  132802
#  156013
#  178202
#  188087
#  208661
#
# Disc length: 3099 seconds
#
# Revision: 0
# Processed by: cddbd v1.5.2PL0 Copyright (c) Steve Scherf et al.
# Submitted via: Collectorz.com_Music_Collector 6.11
#
DISCID=9d0c190c
DTITLE=Morricone, Ennio - La Mafia 2 (Vinyl)
DYEAR=1987
DGENRE=OST - OST - Italian - OST - Morricone - OST - Orchestral - OST - Television
TTITLE0=Mille Echos
TTITLE1=Ombres Et Tentacules
TTITLE2=Embuscade
TTITLE3=Tentative D'Amour
TTITLE4=Souvenir D'Enfance
TTITLE5=Chantage
TTITLE6=Chanson Pour Le Soir
TTITLE7=Enchevetrement De Suspects
TTITLE8=Nocturne Pour le Ville
TTITLE9=Morale
TTITLE10=La Morale De L'Immorale
TTITLE11=Drogue Et Sang
EXTD=
EXTT0=
EXTT1=
EXTT2=
EXTT3=
EXTT4=
EXTT5=
EXTT6=
EXTT7=
EXTT8=
EXTT9=
EXTT10=
EXTT11=
PLAYORDER=
